Coordinates
version=1
nRows=26
nColumns=22
inDegrees=yes

Units are S.I. units (second, meters, Newtons, ...)
If the header above contains a line with 'inDegrees', this indicates whether rotational values are in degrees (yes) or radians (no).

endheader
time	pelvis_tilt	pelvis_list	pelvis_rotation	pelvis_tx	pelvis_ty	pelvis_tz	hip_flexion_r	hip_adduction_r	hip_rotation_r	knee_angle_r	ankle_angle_r	subtalar_angle_r	hip_flexion_l	hip_adduction_l	hip_rotation_l	knee_angle_l	ankle_angle_l	subtalar_angle_l	lumbar_extension	lumbar_bending	lumbar_rotation
      5.43000000	     -2.58290844	      1.87929800	    -92.88002640	      0.87005238	      0.92038924	      0.48110102	     26.64890254	      7.02346761	    -17.92298261	    -24.43177732	      4.39531361	    -12.15750638	     -2.48097601	     -6.54720440	     -6.98345008	    -42.07557009	      3.38904535	     13.89151616	     -6.08080451	      4.24631036	     -7.70703102
      5.44000000	     -2.51241387	      1.87186392	    -93.74430264	      0.86684140	      0.92150470	      0.49045290	     26.03233434	      7.48107395	    -17.09067400	    -24.44541673	      4.64928644	    -12.79582683	     -1.25533721	     -6.66376690	     -6.67604667	    -44.82556626	      2.19460606	     14.05296869	     -6.07313353	      4.15146972	     -7.47053915
      5.45000000	     -2.49994529	      1.77231180	    -94.67270995	      0.86345900	      0.92268876	      0.49964662	     25.27694988	      8.00084687	    -16.26012356	    -24.40760966	      4.88186017	    -13.06353948	     -0.06377395	     -6.86248422	     -6.50153763	    -47.58150054	      1.32039861	     13.99661799	     -6.18441756	      4.09055112	     -7.13129588
      5.46000000	     -2.46705295	      1.70542137	    -95.60704638	      0.86001029	      0.92371861	      0.50859974	     24.54363420	      8.49528678	    -15.37722318	    -24.35096061	      5.19344922	    -13.46869965	      1.25071588	     -7.03899507	     -6.32163886	    -50.33125202	      0.84559631	     13.58603075	     -6.25828472	      3.98642465	     -6.80732844
      5.47000000	     -2.47537232	      1.59526017	    -96.58131858	      0.85643124	      0.92476858	      0.51739880	     23.74163677	      9.01170826	    -14.53250146	    -24.28288264	      5.55299751	    -13.78295389	      2.55499681	     -7.27831040	     -6.21703263	    -53.00009802	      0.64286574	     12.98917780	     -6.38560718	      3.89889507	     -6.39135034
      5.48000000	     -2.50976806	      1.47518712	    -97.59212585	      0.85271459	      0.92582119	      0.52600292	     22.89990535	      9.55223129	    -13.62443957	    -24.18139584	      5.90790281	    -13.95640280	      3.87540087	     -7.57037933	     -6.16844073	    -55.55727081	      0.75976628	     12.29942802	     -6.52888444	      3.81572980	     -5.94651266
      5.49000000	     -2.55972387	      1.35970438	    -98.62876995	      0.84888966	      0.92687913	      0.53441150	     22.03777904	     10.09676085	    -12.68206060	    -24.05238785	      6.26083678	    -14.05401872	      5.21916376	     -7.90022148	     -6.14269484	    -57.96927390	      1.09605260	     11.52507508	     -6.66887211	      3.72914951	     -5.47159163
      5.50000000	     -2.61678567	      1.25442336	    -99.68299980	      0.84497656	      0.92794253	      0.54261487	     21.16688789	     10.63214208	    -11.71679303	    -23.90068440	      6.61093886	    -14.10678368	      6.58712064	     -8.25569572	     -6.11663319	    -60.21292539	      1.56421657	     10.66928971	     -6.79877365	      3.63377456	     -4.98889441
      5.51000000	     -2.67395752	      1.16846201	   -100.75422600	      0.84098614	      0.92902649	      0.55061674	     20.28002000	     11.15612791	    -10.71984079	    -23.69270308	      6.92002623	    -14.12245959	      7.97865240	     -8.61532371	     -6.05689990	    -62.25930006	      2.10435705	      9.82815664	     -6.90635257	      3.52533159	     -4.48207915
      5.52000000	     -2.72878032	      1.09623491	   -101.83708746	      0.83693304	      0.93012249	      0.55840962	     19.37783679	     11.66092086	     -9.70387393	    -23.43753724	      7.19682865	    -14.12246658	      9.38312972	     -8.97148970	     -5.95375276	    -64.09541353	      2.66485975	      9.01314536	     -6.99916024	      3.40293116	     -3.97137332
      5.53000000	     -2.78051119	      1.03253506	   -102.93166369	      0.83283967	      0.93122372	      0.56598352	     18.45780511	     12.14240279	     -8.67129867	    -23.13961826	      7.43941314	    -14.11984483	     10.78908631	     -9.30997246	     -5.79374256	    -65.71003390	      3.21512910	      8.22669987	     -7.08679421	      3.26915599	     -3.46523915
      5.54000000	     -2.82735510	      0.97681375	   -104.03744150	      0.82872495	      0.93232200	      0.57335097	     17.51274689	     12.59619805	     -7.62863414	    -22.78518778	      7.64103606	    -14.12184312	     12.18661361	     -9.61441257	     -5.56531206	    -67.09027779	      3.74981851	      7.49947926	     -7.16852105	      3.12389749	     -2.95064796
      5.55000000	     -2.88633967	      0.93138985	   -105.15142158	      0.82459919	      0.93338656	      0.58054560	     16.53998579	     13.03402375	     -6.60543192	    -22.37457926	      7.83869628	    -14.12615867	     13.56685963	     -9.90333967	     -5.26913457	    -68.23716581	      4.31622813	      6.94239594	     -7.24426349	      2.98993906	     -2.41185766
      5.56000000	     -2.89501541	      0.89350442	   -106.27944520	      0.82051889	      0.93440243	      0.58749785	     15.58018140	     13.39466473	     -5.54133750	    -21.95047635	      8.01520485	    -14.15811359	     14.93801850	    -10.08728208	     -4.91513404	    -69.12978462	      4.74602367	      6.13144475	     -7.31322219	      2.80294307	     -1.89589212
      5.57000000	     -2.94127721	      0.87402868	   -107.40669315	      0.81646963	      0.93531988	      0.59426851	     14.61665479	     13.76194961	     -4.50981835	    -21.50270301	      8.20729119	    -14.16667246	     16.29314094	    -10.28100678	     -4.48667823	    -69.80369140	      5.29312790	      5.68252274	     -7.38343835	      2.66605033	     -1.35976183
      5.58000000	     -2.93116950	      0.86061215	   -108.55706980	      0.81245658	      0.93617750	      0.60086990	     13.66167670	     14.04446443	     -3.43953782	    -21.03590792	      8.37501304	    -14.20588969	     17.61289822	    -10.37558296	     -4.04561578	    -70.20778269	      5.71649751	      4.98632807	     -7.43546211	      2.47061395	     -0.80907385
      5.59000000	     -2.95781556	      0.88065272	   -109.69040359	      0.80852817	      0.93688558	      0.60729192	     12.74254121	     14.33609796	     -2.39675544	    -20.58212566	      8.55776171	    -14.20768806	     18.93289685	    -10.48024435	     -3.52445707	    -70.40760403	      6.24384762	      4.61969836	     -7.47875076	      2.33792113	     -0.26557157
      5.60000000	     -2.95736704	      0.91598892	   -110.83323116	      0.80465227	      0.93750942	      0.61360242	     11.83610871	     14.57322616	     -1.33833129	    -20.11119915	      8.73855006	    -14.21102783	     20.21320411	    -10.53177876	     -2.99657151	    -70.35717688	      6.72001617	      4.22266348	     -7.50129417	      2.19112292	      0.28677425
      5.61000000	     -2.95241958	      0.95690985	   -111.95894293	      0.80084371	      0.93805168	      0.61983626	     10.93606166	     14.77158363	     -0.29633632	    -19.63662236	      8.92320523	    -14.21170560	     21.44415259	    -10.54829298	     -2.43936151	    -70.07591069	      7.17218230	      3.85529842	     -7.51637861	      2.05019714	      0.82476726
      5.62000000	     -2.96151991	      1.00910493	   -113.06192556	      0.79713434	      0.93850247	      0.62600211	     10.05129136	     14.95382187	      0.74486529	    -19.17443579	      9.12883751	    -14.20398892	     22.62693502	    -10.54355558	     -1.84138628	    -69.57987784	      7.63155265	      3.57995053	     -7.53100732	      1.94622569	      1.34027344
      5.63000000	     -2.97719061	      1.06389587	   -114.13939068	      0.79352290	      0.93888013	      0.63212477	      9.17749217	     15.11112058	      1.79091507	    -18.72798955	      9.34753363	    -14.18912915	     23.74839159	    -10.50591585	     -1.21111234	    -68.87068461	      8.08090519	      3.37975949	     -7.54878203	      1.86694796	      1.82677712
      5.64000000	     -2.98980493	      1.11277849	   -115.20143306	      0.78997083	      0.93921963	      0.63825171	      8.29893035	     15.23063266	      2.83881417	    -18.28254636	      9.56406088	    -14.16686159	     24.78294842	    -10.43208857	     -0.57850832	    -67.93513333	      8.49869540	      3.24069863	     -7.56449362	      1.79686062	      2.29047861
      5.65000000	     -3.00254072	      1.14704852	   -116.24943515	      0.78647703	      0.93953439	      0.64438636	      7.41033702	     15.31101637	      3.88296280	    -17.84312341	      9.77994522	    -14.13655401	     25.71817377	    -10.32440536	      0.04799492	    -66.78099678	      8.88133825	      3.16842559	     -7.59019886	      1.73640589	      2.73338606
      5.66000000	     -3.02025933	      1.17492780	   -117.26886424	      0.78304535	      0.93979599	      0.65050983	      6.53685971	     15.36287677	      4.91809013	    -17.43619807	     10.00430764	    -14.10067779	     26.56862435	    -10.18287730	      0.69855472	    -65.42795022	      9.22873999	      3.16768047	     -7.62259034	      1.69146737	      3.13299151
      5.67000000	     -3.03609423	      1.18907329	   -118.27121686	      0.77965887	      0.94003595	      0.65665899	      5.66256189	     15.37406001	      5.92915550	    -17.04277942	     10.22426163	    -14.05341516	     27.31408431	    -10.00678716	      1.34720596	    -63.87073565	      9.54079404	      3.26508904	     -7.66132741	      1.65296372	      3.50209226
      5.68000000	     -3.05524240	      1.20332046	   -119.24781971	      0.77631824	      0.94021635	      0.66279757	      4.81762992	     15.36117734	      6.91983532	    -16.69051477	     10.44880856	    -13.99829190	     27.97666417	     -9.80728778	      2.01903636	    -62.13359664	      9.82860940	      3.46894042	     -7.70087599	      1.62796225	      3.83733115
